<?xml version="1.0" encoding="UTF-8" standalone="no"?>
<!DOCTYPE svg PUBLIC "-//W3C//DTD SVG 1.1//EN" "http://www.w3.org/Graphics/SVG/1.1/DTD/svg11.dtd">
<svg width="100%" height="100%" viewBox="0 0 232 237" version="1.1" xmlns="http://www.w3.org/2000/svg" xmlns:xlink="http://www.w3.org/1999/xlink" xml:space="preserve" xmlns:serif="http://www.serif.com/" style="fill-rule:evenodd;clip-rule:evenodd;stroke-linejoin:round;stroke-miterlimit:2;">
    <g transform="matrix(0.24,0,0,0.24,0,0)">
        <g id="backdrop" transform="matrix(1,0,0,1,432.964,-3.63257)">
            <circle cx="47.805" cy="493.506" r="432.964" style="fill:white;"/>
        </g>
        <g id="Artboard1" transform="matrix(0.953192,0,0,0.970305,-703.69,-1078.6)">
            <rect x="738.247" y="1111.6" width="1010.7" height="1013.52" style="fill:none;"/>
            <g id="Layer1" transform="matrix(1.04911,0,0,1.0306,-59.0252,-53.512)">
                <path d="M1241.93,1153.42C1499.66,1153.42 1708.9,1362.67 1708.9,1620.39C1708.9,1878.12 1499.66,2087.36 1241.93,2087.36C984.209,2087.36 774.968,1878.12 774.968,1620.39C774.968,1362.67 984.209,1153.42 1241.93,1153.42ZM1236.12,1231.82C1450.35,1231.82 1624.29,1405.75 1624.29,1619.99C1624.29,1834.23 1450.35,2008.16 1236.12,2008.16C1021.88,2008.16 847.946,1834.23 847.946,1619.99C847.946,1405.75 1021.88,1231.82 1236.12,1231.82Z" style="fill:rgb(200,0,0);"/>
            </g>
            <g id="Layer2" transform="matrix(1.04911,0,0,1.0306,-59.0252,-53.512)">
                <path d="M1143.49,1754.25L1107.79,1869.8L1028.04,1869.8L1062.29,1754.25L1035.72,1754.25L1035.72,1676.5L1085.34,1676.5L1201.05,1286.14L1201.61,1286.13L1201.44,1284.42L1240.72,1285.28L1280,1284.42L1279.83,1286.13L1280.4,1286.14L1396.1,1676.5L1445.12,1676.5L1445.12,1754.25L1419.15,1754.25L1453.4,1869.8L1373.66,1869.8L1337.95,1754.25L1143.49,1754.25ZM1167.52,1676.5L1313.92,1676.5L1240.72,1439.63L1167.52,1676.5Z" style="fill:rgb(200,0,0);"/>
            </g>
        </g>
    </g>
</svg>
